{
  "accessors": [
    {
      "bufferView": 2,
      "componentType": 5126,
      "count": 48,
      "max": [
        -163.7412567138672,
        -137.4310302734375,
        48.85374069213867
      ],
      "min": [
        -207.3614959716797,
        -156.80360412597656,
        19.564146041870117
      ],
      "type": "VEC3"
    },
    {
      "bufferView": 2,
      "byteOffset": 576,
      "componentType": 5126,
      "count": 48,
      "max": [
        0.9831839799880981,
        0.9999211430549622,
        0.0
      ],
      "min": [
        -0.012560001574456692,
        -0.31070515513420105,
        0.0
      ],
      "type": "VEC3"
    },
    {
      "bufferView": 1,
      "componentType": 5126,
      "count": 48,
      "max": [
        0.7787929773330688,
        1.0
      ],
      "min": [
        0.202224999666214,
        0.04906800016760826
      ],
      "type": "VEC2"
    },
    {
      "bufferView": 0,
      "componentType": 5125,
      "count": 72,
      "type": "SCALAR"
    },
    {
      "bufferView": 2,
      "byteOffset": 1152,
      "componentType": 5126,
      "count": 5043,
      "max": [
        -184.99925231933594,
        -133.80836486816406,
        41.41605758666992
      ],
      "min": [
        -211.66891479492188,
        -158.13612365722656,
        1.091660976409912
      ],
      "type": "VEC3"
    },
    {
      "bufferView": 2,
      "byteOffset": 61668,
      "componentType": 5126,
      "count": 5043,
      "max": [
        0.9999749064445496,
        0.9998408555984497,
        1.0
      ],
      "min": [
        -0.999984622001648,
        -0.9999152421951294,
        -0.8487308025360107
      ],
      "type": "VEC3"
    },
    {
      "bufferView": 1,
      "byteOffset": 384,
      "componentType": 5126,
      "count": 5043,
      "max": [
        0.9962350130081177,
        1.0
      ],
      "min": [
        0.0,
        0.0
      ],
      "type": "VEC2"
    },
    {
      "bufferView": 0,
      "byteOffset": 288,
      "componentType": 5125,
      "count": 28440,
      "type": "SCALAR"
    },
    {
      "bufferView": 2,
      "byteOffset": 122184,
      "componentType": 5126,
      "count": 7481,
      "max": [
        -159.77084350585938,
        -145.31735229492188,
        35.32994079589844
      ],
      "min": [
        -184.22410583496094,
        -161.17555236816406,
        0.17327700555324554
      ],
      "type": "VEC3"
    },
    {
      "bufferView": 2,
      "byteOffset": 211956,
      "componentType": 5126,
      "count": 7481,
      "max": [
        0.9999997615814209,
        0.9999814629554749,
        0.9999480247497559
      ],
      "min": [
        -0.9999499917030334,
        -0.9997718930244446,
        -0.790992796421051
      ],
      "type": "VEC3"
    },
    {
      "bufferView": 1,
      "byteOffset": 40728,
      "componentType": 5126,
      "count": 7481,
      "max": [
        0.9975709915161133,
        0.8594679832458496
      ],
      "min": [
        0.0,
        0.0
      ],
      "type": "VEC2"
    },
    {
      "bufferView": 0,
      "byteOffset": 114048,
      "componentType": 5125,
      "count": 43332,
      "type": "SCALAR"
    },
    {
      "bufferView": 2,
      "byteOffset": 301728,
      "componentType": 5126,
      "count": 3889,
      "max": [
        -164.05862426757813,
        -133.2815399169922,
        35.54922866821289
      ],
      "min": [
        -178.3379669189453,
        -155.2462615966797,
        0.19365499913692474
      ],
      "type": "VEC3"
    },
    {
      "bufferView": 2,
      "byteOffset": 348396,
      "componentType": 5126,
      "count": 3889,
      "max": [
        0.9999907612800598,
        0.9998445510864258,
        0.9999253749847412
      ],
      "min": [
        -0.999984860420227,
        -0.9998493790626526,
        -0.8109206557273865
      ],
      "type": "VEC3"
    },
    {
      "bufferView": 1,
      "byteOffset": 100576,
      "componentType": 5126,
      "count": 3889,
      "max": [
        1.0,
        0.7477610111236572
      ],
      "min": [
        0.0,
        7.999999979801942e-06
      ],
      "type": "VEC2"
    },
    {
      "bufferView": 0,
      "byteOffset": 287376,
      "componentType": 5125,
      "count": 22368,
      "type": "SCALAR"
    }
  ],
  "asset": {
    "extras": {
      "author": "Em Marshall (https://sketchfab.com/emarshall)",
      "license": "CC-BY-4.0 (http://creativecommons.org/licenses/by/4.0/)",
      "source": "https://sketchfab.com/3d-models/candles-asset-pack-56a68205dae649a388c6e3ba04145a9e",
      "title": "Candles Asset Pack"
    },
    "generator": "Sketchfab-13.74.0",
    "version": "2.0"
  },
  "bufferViews": [
    {
      "buffer": 0,
      "byteLength": 376848,
      "name": "floatBufferViews",
      "target": 34963
    },
    {
      "buffer": 0,
      "byteLength": 131688,
      "byteOffset": 376848,
      "byteStride": 8,
      "name": "floatBufferViews",
      "target": 34962
    },
    {
      "buffer": 0,
      "byteLength": 395064,
      "byteOffset": 508536,
      "byteStride": 12,
      "name": "floatBufferViews",
      "target": 34962
    }
  ],
  "buffers": [
    {
      "byteLength": 903600,
      "uri": "scene.bin"
    }
  ],
  "images": [
    {
      "uri": "textures/initialShadingGroup_baseColor.png"
    },
    {
      "uri": "textures/lambert4SG_baseColor.png"
    },
    {
      "uri": "textures/lambert4SG_metallicRoughness.png"
    },
    {
      "uri": "textures/lambert6SG_baseColor.png"
    },
    {
      "uri": "textures/lambert6SG_metallicRoughness.png"
    }
  ],
  "materials": [
    {
      "alphaCutoff": 0.6859816382032452,
      "alphaMode": "MASK",
      "doubleSided": true,
      "emissiveFactor": [
        1.0,
        0.276155439301381,
        0.05548614497171828
      ],
      "name": "initialShadingGroup",
      "pbrMetallicRoughness": {
        "baseColorTexture": {
          "index": 0
        },
        "metallicFactor": 0.0,
        "roughnessFactor": 0.5399633737520001
      }
    },
    {
      "doubleSided": true,
      "name": "lambert4SG",
      "pbrMetallicRoughness": {
        "baseColorTexture": {
          "index": 1
        },
        "metallicFactor": 0.0,
        "metallicRoughnessTexture": {
          "index": 2
        },
        "roughnessFactor": 0.181
      }
    },
    {
      "doubleSided": true,
      "name": "lambert6SG",
      "pbrMetallicRoughness": {
        "baseColorTexture": {
          "index": 3
        },
        "metallicFactor": 0.0,
        "metallicRoughnessTexture": {
          "index": 4
        }
      }
    }
  ],
  "meshes": [
    {
      "name": "Object_0",
      "primitives": [
        {
          "attributes": {
            "NORMAL": 1,
            "POSITION": 0,
            "TEXCOORD_0": 2
          },
          "indices": 3,
          "material": 0,
          "mode": 4
        }
      ]
    },
    {
      "name": "Object_1",
      "primitives": [
        {
          "attributes": {
            "NORMAL": 5,
            "POSITION": 4,
            "TEXCOORD_0": 6
          },
          "indices": 7,
          "material": 1,
          "mode": 4
        }
      ]
    },
    {
      "name": "Object_2",
      "primitives": [
        {
          "attributes": {
            "NORMAL": 9,
            "POSITION": 8,
            "TEXCOORD_0": 10
          },
          "indices": 11,
          "material": 2,
          "mode": 4
        }
      ]
    },
    {
      "name": "Object_3",
      "primitives": [
        {
          "attributes": {
            "NORMAL": 13,
            "POSITION": 12,
            "TEXCOORD_0": 14
          },
          "indices": 15,
          "material": 2,
          "mode": 4
        }
      ]
    }
  ],
  "nodes": [
    {
      "children": [
        1
      ],
      "matrix": [
        1.0,
        0.0,
        0.0,
        0.0,
        0.0,
        2.220446049250313e-16,
        -1.0,
        0.0,
        0.0,
        1.0,
        2.220446049250313e-16,
        0.0,
        0.0,
        0.0,
        0.0,
        1.0
      ],
      "name": "Sketchfab_model"
    },
    {
      "children": [
        2,
        3,
        4,
        5
      ],
      "name": "Assorted Candles.obj.cleaner.materialmerger.gles"
    },
    {
      "mesh": 0,
      "name": "Object_2"
    },
    {
      "mesh": 1,
      "name": "Object_3"
    },
    {
      "mesh": 2,
      "name": "Object_4"
    },
    {
      "mesh": 3,
      "name": "Object_5"
    }
  ],
  "samplers": [
    {
      "magFilter": 9729,
      "minFilter": 9987,
      "wrapS": 10497,
      "wrapT": 10497
    }
  ],
  "scene": 0,
  "scenes": [
    {
      "name": "Sketchfab_Scene",
      "nodes": [
        0
      ]
    }
  ],
  "textures": [
    {
      "sampler": 0,
      "source": 0
    },
    {
      "sampler": 0,
      "source": 1
    },
    {
      "sampler": 0,
      "source": 2
    },
    {
      "sampler": 0,
      "source": 3
    },
    {
      "sampler": 0,
      "source": 4
    }
  ]
}
