{
  "accessors": [
    {
      "bufferView": 2,
      "componentType": 5126,
      "count": 49504,
      "max": [
        5.015157222747803,
        15.42148208618164,
        5.015148162841797
      ],
      "min": [
        -5.015159606933594,
        0.3736305236816406,
        -5.015150547027588
      ],
      "type": "VEC3"
    },
    {
      "bufferView": 2,
      "byteOffset": 594048,
      "componentType": 5126,
      "count": 49504,
      "max": [
        1.0,
        1.0,
        1.0
      ],
      "min": [
        -1.0,
        -1.0,
        -1.0
      ],
      "type": "VEC3"
    },
    {
      "bufferView": 1,
      "componentType": 5126,
      "count": 49504,
      "max": [
        1.0000004768371582,
        1.0
      ],
      "min": [
        0.0,
        -1.564621925354004e-07
      ],
      "type": "VEC2"
    },
    {
      "bufferView": 0,
      "componentType": 5125,
      "count": 238590,
      "type": "SCALAR"
    }
  ],
  "asset": {
    "extras": {
      "author": "Pointveteran (https://sketchfab.com/Pointveteran)",
      "license": "CC-BY-4.0 (http://creativecommons.org/licenses/by/4.0/)",
      "source": "https://sketchfab.com/3d-models/the-bird-cage-1e1bec71da534e7bb72fdbfc08b354d1",
      "title": "The Bird Cage"
    },
    "generator": "Sketchfab-12.68.0",
    "version": "2.0"
  },
  "bufferViews": [
    {
      "buffer": 0,
      "byteLength": 954360,
      "name": "floatBufferViews",
      "target": 34963
    },
    {
      "buffer": 0,
      "byteLength": 396032,
      "byteOffset": 954360,
      "byteStride": 8,
      "name": "floatBufferViews",
      "target": 34962
    },
    {
      "buffer": 0,
      "byteLength": 1188096,
      "byteOffset": 1350392,
      "byteStride": 12,
      "name": "floatBufferViews",
      "target": 34962
    }
  ],
  "buffers": [
    {
      "byteLength": 2538488,
      "uri": "scene.bin"
    }
  ],
  "images": [
    {
      "uri": "textures/phongE1_baseColor.jpeg"
    }
  ],
  "materials": [
    {
      "doubleSided": true,
      "name": "phongE1",
      "pbrMetallicRoughness": {
        "baseColorTexture": {
          "index": 0
        },
        "metallicFactor": 0.0,
        "roughnessFactor": 0.8942628736559436
      }
    }
  ],
  "meshes": [
    {
      "name": "pCylinder36_phongE1_0",
      "primitives": [
        {
          "attributes": {
            "NORMAL": 1,
            "POSITION": 0,
            "TEXCOORD_0": 2
          },
          "indices": 3,
          "material": 0,
          "mode": 4
        }
      ]
    }
  ],
  "nodes": [
    {
      "children": [
        1
      ],
      "matrix": [
        1.0,
        0.0,
        0.0,
        0.0,
        0.0,
        2.220446049250313e-16,
        -1.0,
        0.0,
        0.0,
        1.0,
        2.220446049250313e-16,
        0.0,
        0.0,
        0.0,
        0.0,
        1.0
      ],
      "name": "Sketchfab_model"
    },
    {
      "children": [
        2
      ],
      "matrix": [
        1.0,
        0.0,
        0.0,
        0.0,
        0.0,
        0.0,
        1.0,
        0.0,
        0.0,
        -1.0,
        0.0,
        0.0,
        0.0,
        0.0,
        0.0,
        1.0
      ],
      "name": "8533f63f33f94c5381bc439df5ee49d1.fbx"
    },
    {
      "children": [
        3,
        5
      ],
      "name": "RootNode"
    },
    {
      "children": [
        4
      ],
      "matrix": [
        2.220446049250313e-16,
        0.0,
        1.0,
        0.0,
        0.0,
        1.0,
        0.0,
        0.0,
        -1.0,
        0.0,
        2.220446049250313e-16,
        0.0,
        -0.760869562625885,
        4.695652008056641,
        -1000.0999755859375,
        1.0
      ],
      "name": "back1"
    },
    {
      "name": "Object_4"
    },
    {
      "children": [
        6
      ],
      "matrix": [
        2.3719005584716797,
        0.0,
        0.0,
        0.0,
        0.0,
        2.3719005584716797,
        0.0,
        0.0,
        0.0,
        0.0,
        2.3719005584716797,
        0.0,
        1.5594303022226086e-06,
        -0.8630595207214355,
        1.5594303022226086e-06,
        1.0
      ],
      "name": "pCylinder36"
    },
    {
      "mesh": 0,
      "name": "pCylinder36_phongE1_0"
    }
  ],
  "samplers": [
    {
      "magFilter": 9729,
      "minFilter": 9987,
      "wrapS": 10497,
      "wrapT": 10497
    }
  ],
  "scene": 0,
  "scenes": [
    {
      "name": "Sketchfab_Scene",
      "nodes": [
        0
      ]
    }
  ],
  "textures": [
    {
      "sampler": 0,
      "source": 0
    }
  ]
}
