{
  "accessors": [
    {
      "bufferView": 2,
      "componentType": 5126,
      "count": 27161,
      "max": [
        0.5314532518386841,
        0.5090801119804382,
        0.5750792622566223
      ],
      "min": [
        -0.5314875245094299,
        -0.5506750345230103,
        -0.5103741884231567
      ],
      "type": "VEC3"
    },
    {
      "bufferView": 2,
      "byteOffset": 325932,
      "componentType": 5126,
      "count": 27161,
      "max": [
        0.9999688863754272,
        0.9998971223831177,
        0.9999723434448242
      ],
      "min": [
        -0.9998712539672852,
        -0.9999581575393677,
        -0.9999486804008484
      ],
      "type": "VEC3"
    },
    {
      "bufferView": 3,
      "componentType": 5126,
      "count": 27161,
      "max": [
        0.23529411852359772,
        0.23529411852359772,
        0.23529411852359772,
        1.0
      ],
      "min": [
        0.0235294122248888,
        0.0235294122248888,
        0.0235294122248888,
        1.0
      ],
      "type": "VEC4"
    },
    {
      "bufferView": 1,
      "componentType": 5126,
      "count": 27161,
      "max": [
        0.8587325811386108,
        0.998046875
      ],
      "min": [
        0.0019531291909515858,
        0.0019531016005203128
      ],
      "type": "VEC2"
    },
    {
      "bufferView": 0,
      "componentType": 5125,
      "count": 160632,
      "type": "SCALAR"
    },
    {
      "bufferView": 2,
      "byteOffset": 651864,
      "componentType": 5126,
      "count": 8662,
      "max": [
        0.5767731666564941,
        1.2163987159729004,
        0.2630978226661682
      ],
      "min": [
        -0.5758336186408997,
        0.32022929191589355,
        -0.3984745442867279
      ],
      "type": "VEC3"
    },
    {
      "bufferView": 2,
      "byteOffset": 755808,
      "componentType": 5126,
      "count": 8662,
      "max": [
        0.9999399185180664,
        0.9991580247879028,
        0.9994104504585266
      ],
      "min": [
        -0.999963104724884,
        -0.9998570084571838,
        -0.9991292953491211
      ],
      "type": "VEC3"
    },
    {
      "bufferView": 3,
      "byteOffset": 434576,
      "componentType": 5126,
      "count": 8662,
      "max": [
        0.2549019753932953,
        0.250980406999588,
        0.20392157137393951,
        1.0
      ],
      "min": [
        0.12156862765550613,
        0.12156862765550613,
        0.10196078568696976,
        1.0
      ],
      "type": "VEC4"
    },
    {
      "bufferView": 1,
      "byteOffset": 217288,
      "componentType": 5126,
      "count": 8662,
      "max": [
        0.998046875,
        0.9979299902915955
      ],
      "min": [
        0.0019531375728547573,
        0.0019531375728547573
      ],
      "type": "VEC2"
    },
    {
      "bufferView": 1,
      "byteOffset": 286584,
      "componentType": 5126,
      "count": 8662,
      "max": [
        0.998046875,
        0.9979299902915955
      ],
      "min": [
        0.0019531375728547573,
        0.0019531375728547573
      ],
      "type": "VEC2"
    },
    {
      "bufferView": 0,
      "byteOffset": 642528,
      "componentType": 5125,
      "count": 50034,
      "type": "SCALAR"
    },
    {
      "bufferView": 2,
      "byteOffset": 859752,
      "componentType": 5126,
      "count": 6149,
      "max": [
        0.5609681606292725,
        0.5822237133979797,
        0.01894155889749527
      ],
      "min": [
        -0.561505138874054,
        -0.027967724949121475,
        -0.5282530784606934
      ],
      "type": "VEC3"
    },
    {
      "bufferView": 2,
      "byteOffset": 933540,
      "componentType": 5126,
      "count": 6149,
      "max": [
        0.9982240200042725,
        0.9976273775100708,
        0.9999309182167053
      ],
      "min": [
        -0.999640166759491,
        -0.9998227953910828,
        -0.999384343624115
      ],
      "type": "VEC3"
    },
    {
      "bufferView": 3,
      "byteOffset": 573168,
      "componentType": 5126,
      "count": 6149,
      "max": [
        0.250980406999588,
        0.24705882370471954,
        0.20000000298023224,
        1.0
      ],
      "min": [
        0.10980392247438431,
        0.10980392247438431,
        0.10980392247438431,
        1.0
      ],
      "type": "VEC4"
    },
    {
      "bufferView": 1,
      "byteOffset": 355880,
      "componentType": 5126,
      "count": 6149,
      "max": [
        0.998046875,
        0.8667780160903931
      ],
      "min": [
        0.0019531436264514923,
        0.0019531433936208487
      ],
      "type": "VEC2"
    },
    {
      "bufferView": 1,
      "byteOffset": 405072,
      "componentType": 5126,
      "count": 6149,
      "max": [
        0.998046875,
        0.8667780160903931
      ],
      "min": [
        0.0019531436264514923,
        0.0019531433936208487
      ],
      "type": "VEC2"
    },
    {
      "bufferView": 0,
      "byteOffset": 842664,
      "componentType": 5125,
      "count": 35718,
      "type": "SCALAR"
    },
    {
      "bufferView": 2,
      "byteOffset": 1007328,
      "componentType": 5126,
      "count": 1064,
      "max": [
        0.24237270653247833,
        0.3616977035999298,
        0.3926323354244232
      ],
      "min": [
        -0.24229566752910614,
        0.13122287392616272,
        0.2731890380382538
      ],
      "type": "VEC3"
    },
    {
      "bufferView": 2,
      "byteOffset": 1020096,
      "componentType": 5126,
      "count": 1064,
      "max": [
        0.9985789656639099,
        0.9992791414260864,
        0.9965958595275879
      ],
      "min": [
        -0.9987586140632629,
        -0.9991847276687622,
        -0.9984793066978455
      ],
      "type": "VEC3"
    },
    {
      "bufferView": 3,
      "byteOffset": 671552,
      "componentType": 5126,
      "count": 1064,
      "max": [
        0.8627451062202454,
        0.7333333492279053,
        0.24705882370471954,
        1.0
      ],
      "min": [
        0.0,
        0.0,
        0.0,
        1.0
      ],
      "type": "VEC4"
    },
    {
      "bufferView": 1,
      "byteOffset": 454264,
      "componentType": 5126,
      "count": 1064,
      "max": [
        0.9022065997123718,
        0.9980469346046448
      ],
      "min": [
        0.0019531215075403452,
        0.0019531596917659044
      ],
      "type": "VEC2"
    },
    {
      "bufferView": 1,
      "byteOffset": 462776,
      "componentType": 5126,
      "count": 1064,
      "max": [
        0.9022065997123718,
        0.9980469346046448
      ],
      "min": [
        0.0019531215075403452,
        0.0019531596917659044
      ],
      "type": "VEC2"
    },
    {
      "bufferView": 0,
      "byteOffset": 985536,
      "componentType": 5125,
      "count": 6078,
      "type": "SCALAR"
    },
    {
      "bufferView": 2,
      "byteOffset": 1032864,
      "componentType": 5126,
      "count": 24494,
      "max": [
        0.10492359101772308,
        -0.1556248813867569,
        0.5171880125999451
      ],
      "min": [
        -0.10490633547306061,
        -0.5988302230834961,
        0.2887130379676819
      ],
      "type": "VEC3"
    },
    {
      "bufferView": 2,
      "byteOffset": 1326792,
      "componentType": 5126,
      "count": 24494,
      "max": [
        0.9998178482055664,
        0.9999047517776489,
        0.9999640583992004
      ],
      "min": [
        -0.9999933242797852,
        -0.9999157786369324,
        -0.9999976754188538
      ],
      "type": "VEC3"
    },
    {
      "bufferView": 3,
      "byteOffset": 688576,
      "componentType": 5126,
      "count": 24494,
      "max": [
        0.4470588266849518,
        0.4470588266849518,
        0.4470588266849518,
        1.0
      ],
      "min": [
        0.0,
        0.0,
        0.0,
        1.0
      ],
      "type": "VEC4"
    },
    {
      "bufferView": 1,
      "byteOffset": 471288,
      "componentType": 5126,
      "count": 24494,
      "max": [
        0.9752687215805054,
        0.9980467557907104
      ],
      "min": [
        0.0019531248835846782,
        0.0019531104480847716
      ],
      "type": "VEC2"
    },
    {
      "bufferView": 1,
      "byteOffset": 667240,
      "componentType": 5126,
      "count": 24494,
      "max": [
        0.9752687215805054,
        0.9980467557907104
      ],
      "min": [
        0.0019531248835846782,
        0.0019531104480847716
      ],
      "type": "VEC2"
    },
    {
      "bufferView": 0,
      "byteOffset": 1009848,
      "componentType": 5125,
      "count": 132726,
      "type": "SCALAR"
    },
    {
      "bufferView": 2,
      "byteOffset": 1620720,
      "componentType": 5126,
      "count": 3624,
      "max": [
        0.09852705150842667,
        0.8809472322463989,
        0.4690413475036621
      ],
      "min": [
        -0.11140063405036926,
        0.5742611885070801,
        0.3109641969203949
      ],
      "type": "VEC3"
    },
    {
      "bufferView": 2,
      "byteOffset": 1664208,
      "componentType": 5126,
      "count": 3624,
      "max": [
        0.9994593858718872,
        0.9976547360420227,
        0.9999822974205017
      ],
      "min": [
        -0.9993934631347656,
        -0.9986571669578552,
        -0.9998810291290283
      ],
      "type": "VEC3"
    },
    {
      "bufferView": 3,
      "byteOffset": 1080480,
      "componentType": 5126,
      "count": 3624,
      "max": [
        0.9960784316062927,
        0.9176470637321472,
        0.5568627715110779,
        1.0
      ],
      "min": [
        0.7568627595901489,
        0.13333334028720856,
        0.0,
        1.0
      ],
      "type": "VEC4"
    },
    {
      "bufferView": 1,
      "byteOffset": 863192,
      "componentType": 5126,
      "count": 3624,
      "max": [
        0.9980467557907104,
        0.6622858047485352
      ],
      "min": [
        0.001953128958120942,
        0.001953121623955667
      ],
      "type": "VEC2"
    },
    {
      "bufferView": 1,
      "byteOffset": 892184,
      "componentType": 5126,
      "count": 3624,
      "max": [
        0.9980467557907104,
        0.6622858047485352
      ],
      "min": [
        0.001953128958120942,
        0.001953121623955667
      ],
      "type": "VEC2"
    },
    {
      "bufferView": 0,
      "byteOffset": 1540752,
      "componentType": 5125,
      "count": 20817,
      "type": "SCALAR"
    }
  ],
  "asset": {
    "extras": {
      "author": "Toymancer Studio (https://sketchfab.com/toymancer)",
      "license": "CC-BY-4.0 (http://creativecommons.org/licenses/by/4.0/)",
      "source": "https://sketchfab.com/3d-models/baphomet-head-73410032baca4cf5949a01890a354c2c",
      "title": "Baphomet Head"
    },
    "generator": "Sketchfab-15.77.0",
    "version": "2.0"
  },
  "bufferViews": [
    {
      "buffer": 0,
      "byteLength": 1624020,
      "name": "floatBufferViews",
      "target": 34963
    },
    {
      "buffer": 0,
      "byteLength": 921176,
      "byteOffset": 1624020,
      "byteStride": 8,
      "name": "floatBufferViews",
      "target": 34962
    },
    {
      "buffer": 0,
      "byteLength": 1707696,
      "byteOffset": 2545196,
      "byteStride": 12,
      "name": "floatBufferViews",
      "target": 34962
    },
    {
      "buffer": 0,
      "byteLength": 1138464,
      "byteOffset": 4252892,
      "byteStride": 16,
      "name": "floatBufferViews",
      "target": 34962
    }
  ],
  "buffers": [
    {
      "byteLength": 5391356,
      "uri": "scene.bin"
    }
  ],
  "images": [
    {
      "uri": "textures/Bapho_Head_baseColor.jpeg"
    },
    {
      "uri": "textures/Horns_1_baseColor.jpeg"
    },
    {
      "uri": "textures/Horns_2_baseColor.jpeg"
    },
    {
      "uri": "textures/Eyes_baseColor.jpeg"
    },
    {
      "uri": "textures/Goatee_baseColor.jpeg"
    },
    {
      "uri": "textures/Flame_baseColor.jpeg"
    }
  ],
  "materials": [
    {
      "doubleSided": true,
      "name": "Bapho_Head",
      "pbrMetallicRoughness": {
        "baseColorTexture": {
          "index": 0
        },
        "metallicFactor": 0.0
      }
    },
    {
      "doubleSided": true,
      "name": "Horns_1",
      "pbrMetallicRoughness": {
        "baseColorTexture": {
          "index": 1
        },
        "metallicFactor": 0.0
      }
    },
    {
      "doubleSided": true,
      "name": "Horns_2",
      "pbrMetallicRoughness": {
        "baseColorTexture": {
          "index": 2
        },
        "metallicFactor": 0.0
      }
    },
    {
      "doubleSided": true,
      "name": "Eyes",
      "pbrMetallicRoughness": {
        "baseColorTexture": {
          "index": 3
        },
        "metallicFactor": 0.0
      }
    },
    {
      "doubleSided": true,
      "name": "Goatee",
      "pbrMetallicRoughness": {
        "baseColorTexture": {
          "index": 4
        },
        "metallicFactor": 0.0
      }
    },
    {
      "alphaMode": "BLEND",
      "doubleSided": true,
      "name": "Flame",
      "pbrMetallicRoughness": {
        "baseColorFactor": [
          1.0,
          1.0,
          1.0,
          0.8650946378952873
        ],
        "baseColorTexture": {
          "index": 5
        },
        "metallicFactor": 0.0
      }
    }
  ],
  "meshes": [
    {
      "name": "Bapho_Head_Bapho_Head_0",
      "primitives": [
        {
          "attributes": {
            "COLOR_0": 2,
            "NORMAL": 1,
            "POSITION": 0,
            "TEXCOORD_0": 3
          },
          "indices": 4,
          "material": 0,
          "mode": 4
        }
      ]
    },
    {
      "name": "Horns_1_Horns_1_0",
      "primitives": [
        {
          "attributes": {
            "COLOR_0": 7,
            "NORMAL": 6,
            "POSITION": 5,
            "TEXCOORD_0": 8,
            "TEXCOORD_1": 9
          },
          "indices": 10,
          "material": 1,
          "mode": 4
        }
      ]
    },
    {
      "name": "Horns_2_Horns_2_0",
      "primitives": [
        {
          "attributes": {
            "COLOR_0": 13,
            "NORMAL": 12,
            "POSITION": 11,
            "TEXCOORD_0": 14,
            "TEXCOORD_1": 15
          },
          "indices": 16,
          "material": 2,
          "mode": 4
        }
      ]
    },
    {
      "name": "Eyes_Eyes_0",
      "primitives": [
        {
          "attributes": {
            "COLOR_0": 19,
            "NORMAL": 18,
            "POSITION": 17,
            "TEXCOORD_0": 20,
            "TEXCOORD_1": 21
          },
          "indices": 22,
          "material": 3,
          "mode": 4
        }
      ]
    },
    {
      "name": "Goatee_Goatee_0",
      "primitives": [
        {
          "attributes": {
            "COLOR_0": 25,
            "NORMAL": 24,
            "POSITION": 23,
            "TEXCOORD_0": 26,
            "TEXCOORD_1": 27
          },
          "indices": 28,
          "material": 4,
          "mode": 4
        }
      ]
    },
    {
      "name": "Flame_Flame_0",
      "primitives": [
        {
          "attributes": {
            "COLOR_0": 31,
            "NORMAL": 30,
            "POSITION": 29,
            "TEXCOORD_0": 32,
            "TEXCOORD_1": 33
          },
          "indices": 34,
          "material": 5,
          "mode": 4
        }
      ]
    }
  ],
  "nodes": [
    {
      "children": [
        1
      ],
      "matrix": [
        1.0,
        0.0,
        0.0,
        0.0,
        0.0,
        2.220446049250313e-16,
        -1.0,
        0.0,
        0.0,
        1.0,
        2.220446049250313e-16,
        0.0,
        0.0,
        0.0,
        0.0,
        1.0
      ],
      "name": "Sketchfab_model"
    },
    {
      "children": [
        2
      ],
      "matrix": [
        1.0,
        0.0,
        0.0,
        0.0,
        0.0,
        0.0,
        1.0,
        0.0,
        0.0,
        -1.0,
        0.0,
        0.0,
        0.0,
        0.0,
        0.0,
        1.0
      ],
      "name": "Bapho_Head.fbx"
    },
    {
      "children": [
        3,
        5,
        7,
        9,
        11,
        13
      ],
      "name": "RootNode"
    },
    {
      "children": [
        4
      ],
      "name": "Bapho_Head"
    },
    {
      "mesh": 0,
      "name": "Bapho_Head_Bapho_Head_0"
    },
    {
      "children": [
        6
      ],
      "name": "Horns_1"
    },
    {
      "mesh": 1,
      "name": "Horns_1_Horns_1_0"
    },
    {
      "children": [
        8
      ],
      "name": "Horns_2"
    },
    {
      "mesh": 2,
      "name": "Horns_2_Horns_2_0"
    },
    {
      "children": [
        10
      ],
      "name": "Eyes"
    },
    {
      "mesh": 3,
      "name": "Eyes_Eyes_0"
    },
    {
      "children": [
        12
      ],
      "name": "Goatee"
    },
    {
      "mesh": 4,
      "name": "Goatee_Goatee_0"
    },
    {
      "children": [
        14
      ],
      "name": "Flame"
    },
    {
      "mesh": 5,
      "name": "Flame_Flame_0"
    }
  ],
  "samplers": [
    {
      "magFilter": 9729,
      "minFilter": 9987,
      "wrapS": 10497,
      "wrapT": 10497
    }
  ],
  "scene": 0,
  "scenes": [
    {
      "name": "Sketchfab_Scene",
      "nodes": [
        0
      ]
    }
  ],
  "textures": [
    {
      "sampler": 0,
      "source": 0
    },
    {
      "sampler": 0,
      "source": 1
    },
    {
      "sampler": 0,
      "source": 2
    },
    {
      "sampler": 0,
      "source": 3
    },
    {
      "sampler": 0,
      "source": 4
    },
    {
      "sampler": 0,
      "source": 5
    }
  ]
}
