{
  "accessors": [
    {
      "bufferView": 2,
      "componentType": 5126,
      "count": 65532,
      "max": [
        53.84941101074219,
        51.22285842895508,
        -55.193660736083984
      ],
      "min": [
        -53.84941101074219,
        -51.216609954833984,
        -73.83743286132813
      ],
      "type": "VEC3"
    },
    {
      "bufferView": 2,
      "byteOffset": 786384,
      "componentType": 5126,
      "count": 65532,
      "max": [
        0.9984208941459656,
        0.9999762773513794,
        1.0
      ],
      "min": [
        -0.9997637271881104,
        -0.9999005794525146,
        -1.0
      ],
      "type": "VEC3"
    },
    {
      "bufferView": 1,
      "componentType": 5126,
      "count": 65532,
      "max": [
        0.7625700235366821,
        0.9914299845695496
      ],
      "min": [
        0.003539999946951866,
        0.5674999952316284
      ],
      "type": "VEC2"
    },
    {
      "bufferView": 0,
      "componentType": 5125,
      "count": 356553,
      "type": "SCALAR"
    },
    {
      "bufferView": 2,
      "byteOffset": 1572768,
      "componentType": 5126,
      "count": 32991,
      "max": [
        53.75006103515625,
        51.19303894042969,
        -57.856788635253906
      ],
      "min": [
        -53.84941101074219,
        -51.22285842895508,
        -73.85172271728516
      ],
      "type": "VEC3"
    },
    {
      "bufferView": 2,
      "byteOffset": 1968660,
      "componentType": 5126,
      "count": 32991,
      "max": [
        0.9965720772743225,
        0.9997792840003967,
        0.9999958872795105
      ],
      "min": [
        -0.99986732006073,
        -0.9999881386756897,
        -1.0
      ],
      "type": "VEC3"
    },
    {
      "bufferView": 1,
      "byteOffset": 524256,
      "componentType": 5126,
      "count": 32991,
      "max": [
        0.7603800296783447,
        0.9974700212478638
      ],
      "min": [
        0.002749999985098839,
        0.5674200057983398
      ],
      "type": "VEC2"
    },
    {
      "bufferView": 0,
      "byteOffset": 1426212,
      "componentType": 5125,
      "count": 134415,
      "type": "SCALAR"
    }
  ],
  "asset": {
    "extras": {
      "author": "The Potteries Museum & Art Gallery (https://sketchfab.com/PotteriesMuseum)",
      "license": "CC-BY-4.0 (http://creativecommons.org/licenses/by/4.0/)",
      "source": "https://sketchfab.com/3d-models/wmid-2b69c9-post-medieval-trade-weight-cdc32b5c3f724da5929159a0f0de1045",
      "title": "Wmid-2b69c9 - Post medieval trade weight"
    },
    "generator": "Sketchfab-13.72.0",
    "version": "2.0"
  },
  "bufferViews": [
    {
      "buffer": 0,
      "byteLength": 1963872,
      "name": "floatBufferViews",
      "target": 34963
    },
    {
      "buffer": 0,
      "byteLength": 788184,
      "byteOffset": 1963872,
      "byteStride": 8,
      "name": "floatBufferViews",
      "target": 34962
    },
    {
      "buffer": 0,
      "byteLength": 2364552,
      "byteOffset": 2752056,
      "byteStride": 12,
      "name": "floatBufferViews",
      "target": 34962
    }
  ],
  "buffers": [
    {
      "byteLength": 5116608,
      "uri": "scene.bin"
    }
  ],
  "extensionsUsed": [
    "KHR_materials_unlit"
  ],
  "images": [
    {
      "uri": "textures/material0_baseColor.jpeg"
    }
  ],
  "materials": [
    {
      "doubleSided": true,
      "emissiveTexture": {
        "index": 0
      },
      "extensions": {
        "KHR_materials_unlit": {}
      },
      "name": "material0",
      "pbrMetallicRoughness": {
        "baseColorTexture": {
          "index": 0
        },
        "metallicFactor": 0.0
      }
    }
  ],
  "meshes": [
    {
      "name": "Object_0",
      "primitives": [
        {
          "attributes": {
            "NORMAL": 1,
            "POSITION": 0,
            "TEXCOORD_0": 2
          },
          "indices": 3,
          "material": 0,
          "mode": 4
        }
      ]
    },
    {
      "name": "Object_1",
      "primitives": [
        {
          "attributes": {
            "NORMAL": 5,
            "POSITION": 4,
            "TEXCOORD_0": 6
          },
          "indices": 7,
          "material": 0,
          "mode": 4
        }
      ]
    }
  ],
  "nodes": [
    {
      "children": [
        1
      ],
      "matrix": [
        1.0,
        0.0,
        0.0,
        0.0,
        0.0,
        2.220446049250313e-16,
        -1.0,
        0.0,
        0.0,
        1.0,
        2.220446049250313e-16,
        0.0,
        0.0,
        0.0,
        0.0,
        1.0
      ],
      "name": "Sketchfab_model"
    },
    {
      "children": [
        2,
        3
      ],
      "name": "model_wmid-2b69c9_20220704_105038056.obj.cleaner.materialmerger.gles"
    },
    {
      "mesh": 0,
      "name": "Object_2"
    },
    {
      "mesh": 1,
      "name": "Object_3"
    }
  ],
  "samplers": [
    {
      "magFilter": 9729,
      "minFilter": 9987,
      "wrapS": 10497,
      "wrapT": 10497
    }
  ],
  "scene": 0,
  "scenes": [
    {
      "name": "Sketchfab_Scene",
      "nodes": [
        0
      ]
    }
  ],
  "textures": [
    {
      "sampler": 0,
      "source": 0
    }
  ]
}
